<?xml version="1.0" encoding="UTF-8"?>
<svg id="Capa_1" xmlns="http://www.w3.org/2000/svg" version="1.1" viewBox="0 0 538.84 343.9">
  <!-- Generator: Adobe Illustrator 30.3.0, SVG Export Plug-In . SVG Version: 2.1.3 Build 182)  -->
  <defs>
    <style>
      .st0 {
        fill: #f4abbc;
      }

      .st1 {
        fill: #fbdee3;
      }

      .st2 {
        fill: #fbdfe4;
      }

      .st3 {
        fill: #f19daf;
      }

      .st4 {
        fill: #ee8da2;
      }

      .st5 {
        fill: #fce5e8;
      }

      .st6 {
        fill: #b72f51;
      }

      .st7 {
        fill: #ee8fa4;
      }

      .st8 {
        fill: #f194aa;
      }

      .st9, .st10 {
        fill: #e5365c;
      }

      .st11 {
        fill: #e16e88;
      }

      .st12 {
        fill: #f4adbd;
      }

      .st13 {
        fill: #fce2e6;
      }

      .st10 {
        fill-rule: evenodd;
      }

      .st14 {
        fill: #fbe0e8;
      }

      .st15 {
        fill: #ef9bad;
      }

      .st16 {
        fill: #f4adbe;
      }

      .st17 {
        fill: #ef8ea4;
      }

      .st18 {
        fill: #f09aac;
      }

      .st19 {
        fill: #fad7df;
      }

      .st20 {
        fill: #ef8fa4;
      }

      .st21 {
        fill: #f095a8;
      }

      .st22 {
        fill: #fce2e8;
      }
    </style>
  </defs>
  <g>
    <path class="st12" d="M538.84,227.14v26.61s-1.34.75-1.34.75c-7.73,1.16-14.77,3.65-20.13,7.4-13.71,9.59-10.75,21.49-7.15,33.1.84,5.6-.1,10.72-5.08,15.5-7.11,6.82-17.66,8.4-29.16,9.59-17.16,2.45-30.03,11.8-31.8,22.94l-.98.87h-53.27c.24-16.53,15.2-31.52,39.51-37.7,12.75-3.24,24.29-2.41,36.45-8.58,12.16-6.17,19.45-15.17,19.95-25.08l.43-8.48c2.01-18.82,23.09-34.69,52.57-36.91Z"/>
    <path class="st0" d="M538.84,255.21v88.67s-93.34.02-93.34.02l-.77-.92c1.32-10.72,13.37-19.96,29.82-22.46,13.65-1.55,25.83-3.06,32.75-12.06,3.18-4.14,3.98-8.68,3.16-13.23-3.45-11.82-6.88-23.91,7.53-33.54,4.82-3.22,12.37-6.14,19.33-6.85l1.53.37Z"/>
    <path class="st5" d="M538.84,253.75v1.47c-15.39,1.7-27.35,9.33-29.98,19.38-2.71,10.37,3.4,16.66,2.68,25.45-.78,9.58-10.69,17.6-25.42,19.51l-10.01,1.3c-17.39,2.26-29.8,11.87-30.61,23.04h-2.3c1.32-11.78,14.3-21.68,32.59-24.35l8.95-1.12c12.34-1.55,21.71-7.34,24.22-15.26s-2.56-14.56-2.76-22.62c-.33-13.53,12.14-24.15,32.64-26.8Z"/>
    <path class="st13" d="M149.54,0h389.31v227.13s-1.63.69-1.63.69c-14.18,1.33-26.86,6.05-35.91,13.1-12.68,9.87-14.76,20.9-14.68,32.74-1.39,14.02-17.07,26.96-38.8,29.91-16.28,1.84-30.59,5.64-41.71,13.9-9.47,7.03-14.74,16.02-15.26,25.26l-.9,1.16H0S0,76.46,0,76.46l1.67-.59c12.64-.48,24.46-4.07,33.32-9.82,9.75-6.32,13.81-13.77,14.58-22.51,3.25-12.61,14.42-20.1,34.96-20.5,17.35.92,32.89.84,47.41-6.42,7.92-3.96,14.14-9.46,16.44-15.75L149.54,0Z"/>
    <g>
      <path class="st16" d="M149.54,0c-1.11,3.65-3.36,7.01-6.85,10.18-9.03,8.19-23.36,13.2-39.11,13.77-10.47.38-19.1-1.43-29.8.63-10.41,2.01-18.09,6.91-21.44,13.51-1.56,3.06-2.08,6.09-2.6,9.32-1.06,6.56-5.01,12.47-11.76,17.4C28.2,71.94,14.68,76.22,0,76.46v-19.14s1.07-.64,1.07-.64c15.93-1.94,24.17-9.41,26.03-19.28-.24-9.51.71-18.28,14.2-24.65,9.73-4.6,21.11-4.67,32.52-3.22,17.9,3.99,39.18,2.88,48.38-9L123.52,0h26.02Z"/>
      <path class="st16" d="M121.23,0c1.03,1.33-1.79,3.33-3.3,4.38-14.06,9.75-30.4,7.18-48.14,4.36-11.98-1.12-23.5.32-32.4,5.87-9.97,6.22-10.78,13.86-10.56,22.17-.7,5.57-2.93,10.05-9.24,14.16-3.51,2.29-11.1,5.34-16.21,5.3-.52,0-.97-.23-1.38-.45V0s121.23,0,121.23,0Z"/>
      <path class="st5" d="M123.52,0c-5.25,7.94-18.22,12.54-31.99,12.2-5.26-.13-10.08-.85-15.13-1.71-14.93-2.53-29.86-1.7-40.2,6.06-5.05,3.79-7.83,8.56-7.99,13.59l-.22,6.9C27.66,47.01,15.75,56.22,0,57.32v-1.53c8.66-.54,16.13-3.62,20.95-8.43,7.52-7.52,3.96-14.23,5.85-20.94,2.55-9.04,12.73-15.94,26.79-17.99,15.27-2.23,25.82,2.07,37.9,2.4,9.19.25,18.07-1.74,24.46-5.9,2.32-1.51,4.27-3.03,5.28-4.93h2.28Z"/>
    </g>
  </g>
  <g>
    <path class="st6" d="M147.59,210.09v-10.21h4.16c1.09,0,2.04.22,2.87.65.82.43,1.46,1.03,1.92,1.8.46.77.69,1.65.69,2.65s-.23,1.89-.69,2.66c-.46.77-1.1,1.37-1.92,1.8s-1.78.65-2.87.65h-4.16ZM148.67,209.15h3.02c.9,0,1.69-.18,2.36-.53.67-.35,1.18-.85,1.55-1.47.37-.63.55-1.35.55-2.17s-.19-1.55-.55-2.17c-.37-.62-.89-1.11-1.55-1.47-.67-.35-1.45-.53-2.36-.53h-3.02v8.34Z"/>
    <path class="st6" d="M162.68,210.16c-.8,0-1.5-.17-2.1-.5s-1.07-.8-1.42-1.39c-.34-.59-.51-1.26-.51-2.02s.16-1.43.49-2.01.77-1.04,1.34-1.38c.57-.34,1.21-.5,1.92-.5s1.36.16,1.92.49,1,.78,1.32,1.37.48,1.27.48,2.04c0,.05,0,.1,0,.15,0,.05,0,.11,0,.17h-6.67v-.77h6.11l-.41.31c0-.55-.12-1.05-.36-1.48-.24-.43-.56-.77-.97-1.01-.41-.24-.88-.36-1.42-.36s-1,.12-1.42.36c-.42.24-.74.58-.98,1.02-.23.44-.35.94-.35,1.5v.16c0,.58.13,1.1.39,1.54.26.44.62.79,1.08,1.04s.99.37,1.58.37c.47,0,.9-.08,1.31-.25.4-.17.75-.42,1.04-.76l.58.67c-.34.41-.77.72-1.28.93-.51.21-1.07.32-1.69.32Z"/>
    <path class="st6" d="M170.29,210.16c-.63,0-1.23-.09-1.79-.27-.56-.18-1.01-.41-1.33-.68l.47-.82c.31.23.71.44,1.2.61.49.17,1,.26,1.53.26.73,0,1.25-.11,1.58-.34s.48-.53.48-.91c0-.28-.09-.5-.27-.66-.18-.16-.42-.28-.71-.36-.29-.08-.62-.15-.98-.21-.36-.06-.72-.13-1.07-.2-.35-.08-.68-.19-.97-.34-.29-.15-.53-.36-.71-.62-.18-.26-.27-.61-.27-1.05s.12-.79.35-1.12.58-.59,1.03-.78c.45-.19,1-.28,1.66-.28.5,0,.99.07,1.49.2s.9.3,1.23.52l-.45.83c-.34-.23-.71-.4-1.09-.5-.39-.1-.78-.15-1.17-.15-.69,0-1.2.12-1.52.36-.33.24-.49.54-.49.91,0,.29.09.52.27.69.18.17.42.29.71.39.3.09.62.17.98.23.35.06.71.13,1.06.21s.68.19.98.34c.3.14.53.34.71.6.18.26.27.6.27,1.01,0,.45-.12.83-.37,1.16-.25.33-.61.58-1.08.76-.47.18-1.04.27-1.71.27Z"/>
    <path class="st6" d="M178.53,210.16c-.76,0-1.44-.17-2.04-.5s-1.07-.8-1.41-1.39c-.34-.59-.51-1.26-.51-2.02s.17-1.44.51-2.03.81-1.04,1.41-1.37,1.28-.5,2.04-.5c.65,0,1.24.13,1.77.38.52.25.94.63,1.24,1.14l-.77.52c-.26-.39-.59-.68-.98-.86-.39-.18-.81-.28-1.27-.28-.54,0-1.04.12-1.47.37-.44.25-.78.6-1.04,1.04s-.38.97-.38,1.58.13,1.13.38,1.58c.25.45.6.79,1.04,1.04.44.25.93.37,1.47.37.46,0,.88-.09,1.27-.28.39-.19.71-.47.98-.85l.77.52c-.3.5-.71.87-1.24,1.13-.53.26-1.11.39-1.77.39Z"/>
    <path class="st6" d="M186.73,210.16c-.65,0-1.22-.12-1.71-.36-.49-.24-.86-.61-1.13-1.09-.27-.49-.4-1.09-.4-1.82v-4.45h1.04v4.33c0,.82.2,1.43.6,1.85.4.41.97.62,1.7.62.53,0,1-.11,1.39-.33s.7-.54.9-.96c.21-.42.31-.92.31-1.5v-4.01h1.04v7.66h-.99v-2.1l.16.38c-.24.56-.62,1-1.13,1.32-.51.32-1.11.47-1.79.47Z"/>
    <path class="st6" d="M193.37,210.09v-10.82h1.04v5.43l-.15,1.55.1,1.55v2.3h-.99ZM197.32,210.16c-.67,0-1.27-.15-1.81-.46-.53-.31-.96-.75-1.27-1.33s-.47-1.29-.47-2.12.16-1.54.47-2.12.74-1.02,1.28-1.32c.53-.3,1.13-.45,1.79-.45.73,0,1.38.16,1.96.49s1.03.78,1.36,1.36c.33.58.5,1.26.5,2.04s-.17,1.45-.5,2.03c-.33.59-.79,1.05-1.36,1.38s-1.23.5-1.96.5ZM197.25,209.24c.54,0,1.03-.12,1.46-.37s.77-.6,1.02-1.05c.25-.45.38-.97.38-1.57s-.13-1.13-.38-1.58c-.25-.45-.59-.79-1.02-1.04s-.91-.37-1.46-.37-1.03.12-1.47.37-.77.6-1.02,1.04-.37.97-.37,1.58.12,1.12.37,1.57.59.8,1.02,1.05.92.37,1.47.37Z"/>
    <path class="st6" d="M203.26,210.09v-7.66h.99v2.09l-.1-.36c.21-.58.57-1.03,1.08-1.33.51-.31,1.13-.46,1.88-.46v1.01s-.08,0-.12,0c-.04,0-.08,0-.12,0-.81,0-1.44.25-1.9.74-.46.49-.69,1.19-.69,2.09v3.91h-1.04Z"/>
    <path class="st6" d="M208.57,201.23l2-1.81h1.39l-2.36,1.81h-1.02ZM208.99,210.09v-7.66h1.04v7.66h-1.04Z"/>
    <path class="st6" d="M216.74,210.09v-7.66h.99v2.1l-.16-.39c.24-.55.63-.99,1.17-1.31.53-.32,1.17-.47,1.91-.47.62,0,1.17.12,1.64.36s.84.6,1.11,1.09c.27.49.4,1.1.4,1.84v4.45h-1.04v-4.35c0-.81-.2-1.42-.6-1.83-.4-.41-.97-.62-1.7-.62-.54,0-1.02.11-1.42.33-.4.22-.71.54-.93.95-.22.41-.33.91-.33,1.5v4.03h-1.04Z"/>
    <path class="st6" d="M229.77,210.16c-.65,0-1.22-.12-1.71-.36-.49-.24-.86-.61-1.13-1.09-.27-.49-.4-1.09-.4-1.82v-4.45h1.04v4.33c0,.82.2,1.43.6,1.85.4.41.97.62,1.7.62.53,0,1-.11,1.39-.33s.7-.54.9-.96c.21-.42.31-.92.31-1.5v-4.01h1.04v7.66h-.99v-2.1l.16.38c-.24.56-.62,1-1.13,1.32-.51.32-1.11.47-1.79.47Z"/>
    <path class="st6" d="M239.66,210.16c-.8,0-1.5-.17-2.1-.5s-1.07-.8-1.42-1.39c-.34-.59-.51-1.26-.51-2.02s.16-1.43.49-2.01.77-1.04,1.34-1.38c.57-.34,1.21-.5,1.92-.5s1.36.16,1.92.49,1,.78,1.32,1.37.48,1.27.48,2.04c0,.05,0,.1,0,.15,0,.05,0,.11,0,.17h-6.67v-.77h6.11l-.41.31c0-.55-.12-1.05-.36-1.48-.24-.43-.56-.77-.97-1.01-.41-.24-.88-.36-1.42-.36s-1,.12-1.42.36c-.42.24-.74.58-.98,1.02-.23.44-.35.94-.35,1.5v.16c0,.58.13,1.1.39,1.54.26.44.62.79,1.08,1.04s.99.37,1.58.37c.47,0,.9-.08,1.31-.25.4-.17.75-.42,1.04-.76l.58.67c-.34.41-.77.72-1.28.93-.51.21-1.07.32-1.69.32Z"/>
    <path class="st6" d="M247.27,210.16c-.63,0-1.23-.09-1.79-.27-.56-.18-1.01-.41-1.33-.68l.47-.82c.31.23.71.44,1.2.61.49.17,1,.26,1.53.26.73,0,1.25-.11,1.58-.34s.48-.53.48-.91c0-.28-.09-.5-.27-.66-.18-.16-.42-.28-.71-.36-.29-.08-.62-.15-.98-.21-.36-.06-.72-.13-1.07-.2-.35-.08-.68-.19-.97-.34-.29-.15-.53-.36-.71-.62-.18-.26-.27-.61-.27-1.05s.12-.79.35-1.12.58-.59,1.03-.78c.45-.19,1-.28,1.66-.28.5,0,.99.07,1.49.2s.9.3,1.23.52l-.45.83c-.34-.23-.71-.4-1.09-.5-.39-.1-.78-.15-1.17-.15-.69,0-1.2.12-1.52.36-.33.24-.49.54-.49.91,0,.29.09.52.27.69.18.17.42.29.71.39.3.09.62.17.98.23.35.06.71.13,1.06.21s.68.19.98.34c.3.14.53.34.71.6.18.26.27.6.27,1.01,0,.45-.12.83-.37,1.16-.25.33-.61.58-1.08.76-.47.18-1.04.27-1.71.27Z"/>
    <path class="st6" d="M251.14,203.29v-.86h4.74v.86h-4.74ZM254.75,210.16c-.72,0-1.27-.19-1.66-.58-.39-.39-.58-.94-.58-1.65v-7.19h1.04v7.13c0,.45.11.79.34,1.04s.56.36.98.36c.46,0,.84-.13,1.14-.39l.36.74c-.2.19-.45.32-.74.41-.29.09-.58.13-.88.13Z"/>
    <path class="st6" d="M258.26,210.09v-7.66h.99v2.09l-.1-.36c.21-.58.57-1.03,1.08-1.33.51-.31,1.13-.46,1.88-.46v1.01s-.08,0-.12,0c-.04,0-.08,0-.12,0-.81,0-1.44.25-1.9.74-.46.49-.69,1.19-.69,2.09v3.91h-1.04Z"/>
    <path class="st6" d="M267.04,210.16c-.75,0-1.42-.17-2-.5s-1.05-.8-1.39-1.39-.51-1.26-.51-2.01.17-1.44.51-2.03.8-1.04,1.39-1.37,1.25-.5,2-.5,1.43.17,2.02.5c.59.34,1.05.79,1.39,1.37s.5,1.25.5,2.02-.17,1.43-.5,2.02c-.34.59-.8,1.05-1.39,1.39s-1.26.5-2.01.5ZM267.04,209.24c.55,0,1.05-.12,1.47-.37.43-.25.77-.6,1.01-1.05s.37-.97.37-1.57-.12-1.13-.37-1.58-.59-.79-1.01-1.04c-.43-.25-.91-.37-1.46-.37s-1.03.12-1.46.37c-.43.25-.77.6-1.02,1.04s-.38.97-.38,1.58.13,1.12.38,1.57.59.8,1.01,1.05c.42.25.91.37,1.45.37Z"/>
    <path class="st6" d="M276.88,212.92v-10.49h.99v2.31l-.1,1.53.15,1.55v5.11h-1.04ZM280.84,210.16c-.66,0-1.26-.15-1.79-.46-.53-.31-.96-.75-1.28-1.33s-.47-1.29-.47-2.12.16-1.54.47-2.12.73-1.02,1.27-1.32c.54-.3,1.14-.45,1.81-.45.73,0,1.38.16,1.96.49s1.03.78,1.36,1.37c.33.59.5,1.27.5,2.04s-.17,1.46-.5,2.04c-.33.58-.79,1.04-1.36,1.37s-1.23.5-1.96.5ZM280.76,209.24c.54,0,1.03-.12,1.46-.37s.77-.6,1.02-1.05c.25-.45.38-.97.38-1.57s-.13-1.11-.38-1.56c-.25-.45-.59-.8-1.02-1.05s-.91-.38-1.46-.38-1.03.13-1.47.38-.77.6-1.02,1.05-.37.97-.37,1.56.12,1.12.37,1.57.59.8,1.02,1.05.92.37,1.47.37Z"/>
    <path class="st6" d="M287.3,200.74c-.21,0-.39-.07-.54-.22-.15-.15-.22-.32-.22-.52s.07-.38.22-.52c.15-.14.33-.21.54-.21s.39.07.54.2c.15.14.22.31.22.51s-.07.39-.21.54c-.14.15-.32.22-.55.22ZM286.77,210.09v-7.66h1.04v7.66h-1.04Z"/>
    <path class="st6" d="M290.7,210.09v-7.66h.99v2.1l-.16-.39c.24-.55.63-.99,1.17-1.31.53-.32,1.17-.47,1.91-.47.62,0,1.17.12,1.64.36s.84.6,1.11,1.09c.27.49.4,1.1.4,1.84v4.45h-1.04v-4.35c0-.81-.2-1.42-.6-1.83-.4-.41-.97-.62-1.7-.62-.54,0-1.02.11-1.42.33-.4.22-.71.54-.93.95-.22.41-.33.91-.33,1.5v4.03h-1.04Z"/>
    <path class="st6" d="M300.56,210.09v-10.82h1.04v10.82h-1.04ZM301.38,208.1l.03-1.33,4.77-4.35h1.27l-3.37,3.22-.58.5-2.11,1.95ZM306.5,210.09l-3.2-3.98.67-.8,3.79,4.78h-1.27Z"/>
    <path class="st6" d="M308.98,212.99c-.36,0-.7-.06-1.03-.17-.33-.12-.6-.29-.84-.53l.48-.77c.19.18.41.33.63.43s.48.15.77.15c.34,0,.63-.09.88-.28.25-.19.48-.52.71-1l.5-1.12.12-.16,3.15-7.1h1.02l-3.84,8.58c-.21.5-.45.89-.71,1.18-.26.29-.54.5-.84.62-.3.12-.64.18-1.01.18ZM311.02,210.31l-3.53-7.88h1.08l3.12,7.03-.67.85Z"/>
    <path class="st6" d="M323.81,210.16c-.65,0-1.22-.12-1.71-.36-.49-.24-.86-.61-1.13-1.09s-.4-1.09-.4-1.82v-4.45h1.04v4.33c0,.82.2,1.43.61,1.85.4.41.97.62,1.7.62.54,0,1-.11,1.39-.33.39-.22.69-.54.9-.96.21-.42.31-.92.31-1.5v-4.01h1.04v7.66h-.99v-2.1l.16.38c-.24.56-.62,1-1.13,1.32-.51.32-1.11.47-1.79.47Z"/>
    <path class="st6" d="M330.45,210.09v-7.66h.99v2.1l-.16-.39c.24-.55.63-.99,1.17-1.31.54-.32,1.17-.47,1.91-.47.62,0,1.17.12,1.64.36s.84.6,1.11,1.09c.27.49.4,1.1.4,1.84v4.45h-1.04v-4.35c0-.81-.2-1.42-.61-1.83-.4-.41-.97-.62-1.7-.62-.54,0-1.02.11-1.42.33-.4.22-.71.54-.93.95-.22.41-.33.91-.33,1.5v4.03h-1.04Z"/>
    <path class="st6" d="M340.84,200.74c-.21,0-.39-.07-.54-.22-.15-.15-.22-.32-.22-.52s.07-.38.22-.52c.15-.14.33-.21.54-.21s.39.07.54.2c.15.14.22.31.22.51s-.07.39-.21.54c-.14.15-.32.22-.55.22ZM340.31,210.09v-7.66h1.04v7.66h-1.04Z"/>
    <path class="st6" d="M346.2,210.09l-3.4-7.66h1.08l3.12,7.1h-.51l3.17-7.1h1.02l-3.41,7.66h-1.07Z"/>
    <path class="st6" d="M355.18,210.16c-.8,0-1.5-.17-2.1-.5-.6-.34-1.08-.8-1.42-1.39-.34-.59-.51-1.26-.51-2.02s.16-1.43.49-2.01c.33-.58.77-1.04,1.34-1.38.57-.34,1.21-.5,1.92-.5s1.36.16,1.92.49c.56.33,1,.78,1.32,1.37.32.59.48,1.27.48,2.04,0,.05,0,.1,0,.15,0,.05,0,.11,0,.17h-6.67v-.77h6.11l-.41.31c0-.55-.12-1.05-.36-1.48-.24-.43-.56-.77-.97-1.01s-.88-.36-1.42-.36-1,.12-1.42.36-.74.58-.98,1.02c-.23.44-.35.94-.35,1.5v.16c0,.58.13,1.1.39,1.54.26.44.62.79,1.08,1.04s.99.37,1.58.37c.47,0,.9-.08,1.31-.25.4-.17.75-.42,1.04-.76l.58.67c-.34.41-.77.72-1.28.93-.51.21-1.07.32-1.68.32Z"/>
    <path class="st6" d="M360.73,210.09v-7.66h.99v2.09l-.1-.36c.21-.58.57-1.03,1.08-1.33.51-.31,1.13-.46,1.88-.46v1.01s-.08,0-.12,0c-.04,0-.08,0-.12,0-.81,0-1.44.25-1.9.74-.46.49-.69,1.19-.69,2.09v3.91h-1.04Z"/>
    <path class="st6" d="M368.61,210.16c-.63,0-1.23-.09-1.79-.27-.56-.18-1.01-.41-1.33-.68l.47-.82c.31.23.71.44,1.2.61.49.17,1,.26,1.53.26.73,0,1.25-.11,1.58-.34s.48-.53.48-.91c0-.28-.09-.5-.27-.66-.18-.16-.42-.28-.71-.36s-.62-.15-.98-.21c-.36-.06-.72-.13-1.07-.2-.35-.08-.68-.19-.97-.34s-.53-.36-.71-.62c-.18-.26-.27-.61-.27-1.05s.12-.79.35-1.12.58-.59,1.03-.78c.45-.19,1-.28,1.66-.28.5,0,.99.07,1.49.2s.9.3,1.23.52l-.45.83c-.34-.23-.71-.4-1.09-.5-.39-.1-.78-.15-1.17-.15-.69,0-1.2.12-1.52.36-.33.24-.49.54-.49.91,0,.29.09.52.27.69.18.17.42.29.71.39.3.09.62.17.98.23.35.06.71.13,1.06.21.36.08.68.19.98.34s.54.34.71.6.27.6.27,1.01c0,.45-.12.83-.37,1.16-.25.33-.61.58-1.08.76-.47.18-1.04.27-1.71.27Z"/>
    <path class="st6" d="M376.79,210.16c-.75,0-1.42-.17-2-.5-.58-.34-1.05-.8-1.39-1.39-.34-.59-.51-1.26-.51-2.01s.17-1.44.51-2.03c.34-.58.8-1.04,1.39-1.37.58-.33,1.25-.5,2-.5s1.43.17,2.02.5c.59.34,1.05.79,1.39,1.37.33.58.5,1.25.5,2.02s-.17,1.43-.5,2.02c-.34.59-.8,1.05-1.39,1.39-.59.34-1.26.5-2.01.5ZM376.79,209.24c.55,0,1.04-.12,1.47-.37s.77-.6,1.01-1.05c.25-.45.37-.97.37-1.57s-.12-1.13-.37-1.58c-.25-.45-.59-.79-1.01-1.04s-.91-.37-1.46-.37-1.03.12-1.46.37c-.43.25-.77.6-1.02,1.04s-.38.97-.38,1.58.13,1.12.38,1.57.59.8,1.01,1.05.91.37,1.45.37Z"/>
    <path class="st6" d="M383.27,210.16c-.21,0-.4-.08-.55-.23-.15-.15-.23-.33-.23-.53s.08-.39.23-.53c.15-.14.33-.21.55-.21s.41.07.55.21c.14.14.21.32.21.53s-.07.38-.21.53c-.14.15-.32.23-.55.23ZM382.86,207.02l-.2-7.15h1.22l-.22,7.15h-.8Z"/>
  </g>
  <g>
    <g>
      <path class="st9" d="M190.54,179.79l-.09-4.86c0-4.83.28-9.65.85-14.47,1.08-11.01,2.89-21.82,5.45-32.43,1.53-5.9,2.92-11.86,4.17-17.88.22-.85.34-1.56.34-2.13,0-1.02-.77-1.99-2.3-2.89-.23-.12-.47-.26-.72-.43-.26-.17-.53-.26-.81-.26-.45,0-.82.23-1.11.68-3.12,5.1-8.14,14.22-15.07,27.33-4.2,8.12-6.95,12.37-8.26,12.77-2.04-5.11-3.06-13.11-3.06-24.01-.06-2.1-.23-4.17-.51-6.21-.29-1.71-1.17-3.01-2.64-3.92-1.3-.97-2.27-1.45-2.89-1.45-.68,0-1.39.71-2.13,2.13-.91,1.65-1.62,3.35-2.13,5.11-4.83,14.76-8.83,29.8-12,45.12-1.13,5.51-1.7,10.64-1.7,15.41,0,3.01,1.28,5.19,3.83,6.55.57.34,1.08.51,1.53.51,1.14,0,1.7-.99,1.7-2.98,0-10.1,1.73-22.68,5.19-37.71,3.07-13.4,4.77-20.09,5.11-20.09.28,0,.48,1,.6,2.98,1.65,16.91,5.28,25.36,10.9,25.36,1.87,0,3.95-2.36,6.21-7.07,1.14-2.33,2.53-5.42,4.17-9.28,3.29-7.32,5.08-10.98,5.36-10.98.06,0,.09.06.09.17,0,.17-.09.54-.26,1.11-1.87,6.64-3.38,13.7-4.51,21.2-1.13,7.49-1.7,14.16-1.7,20,0,5.05.37,10.25,1.11,15.58.28,2.61,1.5,4.51,3.66,5.71.28.34.71.51,1.28.51.17,0,.34-.06.51-.17.45-.4.68-.91.68-1.53l-.09-.68c-.51-2.33-.77-4.6-.77-6.81"/>
      <path class="st9" d="M377.93,148.38c-.4-.68-.91-1.03-1.53-1.03-1.03,0-5.41,2.71-13.16,8.11-.29.23-.54.34-.77.34-.34,0-.66-.17-.94-.51-.57-.91-1.16-1.77-1.79-2.56-1.08-1.25-1.62-2.25-1.62-2.99.28-2.05,1.19-3.59,2.73-4.61,1.54-1.03,3.02-1.54,4.44-1.54.52,0,1.05.06,1.63.17.28.12.54.17.77.17.57,0,.85-.45.85-1.37,0-.62-.14-1.19-.43-1.7-1.31-2.68-3.42-4.02-6.32-4.02-2.33,0-4.75,1.2-7.26,3.59-1.94,1.88-2.9,3.9-2.9,6.06,0,.67.12,1.37.34,2.11-.39.13-.77.42-1.13.87-.89,1.15-1.76,2.17-2.59,3.06-6.71,8.94-11.94,13.4-15.7,13.4-1.21,0-2.11-.51-2.68-1.53-.45-.77-.67-1.63-.67-2.59,0-1.72.22-2.75.67-3.06l.67-.19c6-1.59,9.93-5.36,11.78-11.29.26-.83.39-1.63.39-2.4,0-1.85-.77-3.45-2.3-4.79-.96-.77-1.98-1.15-3.06-1.15-1.66,0-3.48.92-5.46,2.78-2.57,2.41-4.62,5.04-6.17,7.91-1.62,1.41-4.86,4.45-9.73,9.13-1.79,1.72-3.86,3.03-6.22,3.93l-1.44.1c-1.02,0-1.91-.29-2.68-.86-1.09-.83-1.63-1.91-1.63-3.25,0-1.47.9-2.78,2.68-3.93,4.15-2.55,9.03-8.24,14.65-17.04.51-.7.76-1.31.76-1.82-.13-.51-.89-1.34-2.3-2.49l-.38-.19c-.51-.32-.96-.48-1.34-.48-.57,0-1.11.29-1.63.86l-2.87,3.45c-3.58,4.47-7.47,8.55-11.68,12.25-.13-.25-.19-.51-.19-.76v-.58c4.21-13.15,9.38-25.85,15.51-38.11.51-.96.77-1.72.77-2.3-.13-.64-.99-1.5-2.59-2.59-.57-.32-1.12-.48-1.63-.48-2.11.32-5.87,7.02-11.3,20.11-4.13,9.65-7.43,18.88-9.9,27.69-6.16,8.74-10.62,13.65-13.37,14.73.06-5.11,1.91-11.46,5.55-19.05.45-.77.67-1.47.67-2.11,0-.95-.74-2.01-2.2-3.16-.64-.51-1.21-.77-1.72-.77-.58,0-1.34.58-2.3,1.72-.96,1.15-2.14,2.2-3.54,3.16l-2.77-2.58c-1.92-1.53-3.77-2.3-5.56-2.3-2.17,0-4.28,1.18-6.32,3.54,0,.13-.03.19-.1.19-.94,1.1-1.78,2.27-2.55,3.48-.14.11-.28.25-.42.4-.57.61-.89.96-.95,1.05-.07.1-.16.21-.29.34-3.64,4.15-7.6,8.01-11.87,11.58-1.79,1.47-3.38,2.2-4.79,2.2-.45,0-.67-.38-.67-1.15,0-6.76,2.42-12.83,7.28-18.19.83-.83,1.47-1.24,1.91-1.24.32,0,.65.16,1.01.48.35.32.72.48,1.1.48.26,0,.54-.13.86-.38.51-.45.77-.92.77-1.44v-.48c-.83-3.57-2.75-5.36-5.74-5.36-1.08,0-2.2.35-3.35,1.05-4.23,2.67-7.23,6.19-9.03,10.55-.29.33-.57.8-.84,1.42-6.83,9.9-11.71,15.42-14.65,16.56.06-5.11,1.91-11.46,5.55-19.05.44-.77.67-1.47.67-2.11,0-.95-.74-2.01-2.2-3.16-.64-.51-1.21-.77-1.72-.77-.57,0-1.34.58-2.3,1.72-.96,1.15-2.14,2.2-3.54,3.16l-2.78-2.58c-1.91-1.53-3.77-2.3-5.55-2.3-2.17,0-4.28,1.18-6.32,3.54,0,.13-.03.19-.09.19-2.87,3.38-4.95,7.28-6.23,11.68-.51,1.59-.77,3-.77,4.21,0,2.49,1.18,4.78,3.54,6.89.64.57,1.31,1.15,2.01,1.72.7.57,1.34.86,1.91.86,1.85,0,5.11-3.51,9.77-10.54.32-.64.67-1.02,1.05-1.15v3.06c0,4.15,1.56,7.4,4.69,9.76.83.71,1.66,1.05,2.49,1.05,1.21,0,2.39-.67,3.54-2.01,3.45-3.79,6.71-7.78,9.78-11.97,0,.16-.01.32-.01.48,0,3.45,1.34,6.76,4.02,9.96,1.02,1.27,2.2,1.91,3.54,1.91,2.83,0,7.56-3.51,14.19-10.51,0,.15-.02.31-.02.46,0,2.49,1.18,4.78,3.54,6.89.64.57,1.31,1.15,2.01,1.72.7.57,1.34.86,1.91.86,1.85,0,5.11-3.51,9.77-10.54.32-.64.67-1.02,1.05-1.15v3.06c0,4.15,1.56,7.4,4.69,9.76.83.71,1.66,1.05,2.49,1.05,1.21,0,2.4-.67,3.54-2.01,2.43-2.67,4.77-5.44,7.01-8.31-.76,3.61-1.38,7.15-1.84,10.61-.13.51-.19,1.06-.19,1.63,0,1.6.74,2.84,2.2,3.74.64.38,1.24.58,1.82.58.83-.26,1.47-1.73,1.91-4.41,1.66-6.51,3.13-11.55,4.41-15.13.38.13.67.32.86.57.19.26.35.51.48.77.13.25.22.45.29.57,1.72,2.3,3.7,4.15,5.94,5.55,1.47,1.02,2.97,1.53,4.5,1.53,2.17,0,4.22-.96,6.13-2.87l6.05-6.09c-.1.84-.17,1.69-.21,2.55,0,3.26.78,5.92,2.34,8,1.57,2.07,3.46,3.11,5.7,3.11,3.51,0,7.63-2.46,12.35-7.37,6.15-6.79,9.97-11.25,11.45-13.4.83,1.2,1.87,2.47,3.12,3.82.74.8,1.11,1.43,1.11,1.88-.06.46-.91,1.28-2.56,2.48-5.58,4.05-9.22,8.17-10.93,12.39-.4,1.14-.6,2.19-.6,3.16,0,1.82,1.08,3.76,3.24,5.81.85.56,1.85.85,2.99.85.51,0,1.06-.06,1.62-.17,4.05-1.08,7.29-3.31,9.74-6.66,2.44-3.02,3.67-6.29,3.67-9.82,0-1.77-.31-3.59-.94-5.47-.17-.57-.26-1.03-.26-1.36,0-.4.77-1.08,2.31-2.05,3.3-2.39,6.66-4.67,10.08-6.83.91-.57,1.37-1.14,1.37-1.71,0-.17-.06-.43-.17-.77M338.18,144.8c-.57,4.28-2.71,7.09-6.41,8.43,1.53-3.19,3.67-6,6.41-8.43M202.32,162.22v-.77c0-2.43.56-4.78,1.67-7.08,1.12-2.3,2.23-3.79,3.35-4.45,1.12-.67,1.97-1,2.54-1,.83,0,1.6.45,2.3,1.34-3.96,5.3-7.25,9.29-9.86,11.97M262.83,162.22v-.77c0-2.43.56-4.78,1.68-7.08s2.23-3.79,3.35-4.45c1.12-.67,1.97-1,2.54-1,.83,0,1.59.45,2.3,1.34-3.96,5.3-7.24,9.29-9.86,11.97M353.41,175.37c-1.42,1.37-2.82,2.05-4.18,2.05-.4,0-.6-.17-.6-.51,0-.85.37-1.91,1.11-3.16,2.39-3.93,5.38-7.32,8.97-10.16l.34-.35c.11.4.17.69.17.86,0,2.33-1.94,6.09-5.81,11.27"/>
    </g>
    <g id="QGniip">
      <g>
        <path class="st10" d="M383.03,141.19c-5.44,0-9.83-4.41-9.82-9.88,0-5.43,4.44-9.84,9.89-9.83,5.43.01,9.83,4.44,9.81,9.89-.02,5.46-4.41,9.82-9.88,9.81ZM383.1,123.12c-4.5-.03-8.22,3.63-8.27,8.15-.05,4.5,3.64,8.28,8.11,8.31,4.59.04,8.32-3.62,8.36-8.18.04-4.53-3.65-8.24-8.2-8.28Z"/>
        <path class="st10" d="M379.55,126.12c1.88-.28,3.74-.55,5.59.09,1.5.53,2.21,1.59,2.07,3.04-.08.82-.47,1.45-1.13,1.92-.21.15-.44.28-.68.44,1.72,1.32,1.83,3.27,2.25,5.18h-1.53c-.13-.56-.23-1.13-.39-1.69-.15-.52-.33-1.04-.58-1.53-.49-.99-1.28-1.54-2.44-1.48-.52.03-1.04,0-1.63,0v4.7h-1.52v-10.68ZM381.11,131.01c1.16-.1,2.27-.13,3.35-.33.87-.16,1.27-.83,1.27-1.68,0-.81-.41-1.4-1.24-1.66-1.1-.35-2.22-.3-3.38-.17v3.84Z"/>
      </g>
    </g>
  </g>
  <g>
    <path class="st6" d="M283.95,16.29c2.48,3.41-1.67,8.88-6.02,12.37-4.78-2.96-9.14-8.76-6.33-12.37.84-1.08,2.39-1.02,3.65-.53.89.34,1.66,1.21,2.47,2.63.53-1.3,1.3-2.18,2.1-2.56,1.4-.65,3.24-.76,4.12.45Z"/>
    <path class="st20" d="M60.91,140.24c-3.78-1.03-7.94-2.89-7.73-5.51.09-1.12.88-1.77,1.86-1.87,1.05-.1,1.93.22,2.82,1.09.21-1.31.45-2.18.95-2.76.62-.71,1.66-.94,2.57-.57.81.33,1.6,1.57,1.31,2.69l-1.78,6.93Z"/>
    <path class="st3" d="M502.77,120.38l-.17,1.39c-.03.27-.64.63-1.1.2-.12-2.2-.2-4.74-1.91-6.39l-4.14-2.05c1.95-.57,3.5-.58,4.45-1.71,1.02-1.21,1.4-2.73,1.49-4.53l.08-1.6c.01-.27.49-.64,1.14-.26.23,2.36.12,5.02,2.14,6.76,1.02.88,3.05.17,4.09,2.12-3.65.05-5.6,2.38-6.06,6.06Z"/>
    <path class="st3" d="M44.21,161.75c-.87,2.31-2.87,3.77-4.83,5.37-3-3.88-5.34-7.97-2.26-9.27,1.09-.46,1.95.97,2.98,1.48.77-.09,2.08-1.35,2.92-.99,1.02.44,1.81,1.78,1.2,3.42Z"/>
    <path class="st15" d="M456,74.99c-2.68-.17.79-5.42-6.53-6.83,3.41-1.01,5.35-1.86,5.32-5.15,0-1.06,1.41-1.06,1.31.09-.21,3.17,1.71,4.17,4.99,4.99-3.72,1.07-5.52,3.29-5.09,6.91Z"/>
    <path class="st18" d="M52.9,319.85c.26,1.56-1.54,1.77-1.49.32.12-3.96-1.98-6.01-5.74-6.66,1.68-1.3,3.26-.75,4.26-1.71.85-.81,1.42-2.3,1.42-3.98,0-1.4,1.58-1.2,1.53-.05-.16,3.7,2.2,4.88,5.74,5.64-3.61,1.07-5.68,2.5-5.71,6.44Z"/>
    <path class="st8" d="M468.46,264.84c.49.92-.58,3.48-1.61,3.55-1.29.09-2.51-1.79-2.58-2.78-.05-.66.52-1.14.8-1.04l1.46.47c.37.12,1.38-1.24,1.93-.2Z"/>
    <path class="st17" d="M525.88,134.39c-.53,1.86-1.71,3.13-3.13,4.44-1.67-.9-3.02-2.47-3.62-4.27-.38-1.15.32-2.23,1.21-2.46.64-.16,1.81,1.43,2.34,1.09l1.69-1.07c.56-.35,1.93.78,1.51,2.27Z"/>
    <path class="st8" d="M474.89,282.16c.78.67-.65,2.39-1.49,2.17-1.14-.29-1.73-1.74-.99-2.61.64,0,1.79-.15,2.48.43Z"/>
    <g>
      <path class="st11" d="M470.75,227.03c-2.86-4.56-4.86-9.51-5.68-14.83-.52-3.35-.1-7.38,2.67-8.3,3.64-1.21,6.68,2.84,7.3,6.66,2.02-3.87,6.55-6.63,9.53-3.88,3.11,2.87-1.42,9.74-4.27,13.25-2.24,2.75-4.89,4.93-7.58,7.25l-1.98-.15Z"/>
      <path class="st13" d="M471.89,225.13c-2.54-5.24-5.65-12.2-4.84-17.66.14-.98.78-1.63,1.6-1.88,2.61-.8,4.97,5.21,4.8,8.77.4.34,1.45.52,1.73.18,1.34-2.82,5.03-7.74,7.32-7.23.84.19.8,1.77.63,2.47-1.16,4.77-5.54,9.57-9.06,13.14l-2.17,2.2Z"/>
    </g>
    <g>
      <path class="st21" d="M120.94,74.02l-1.05,5.44c-1.98-4.01-.36-8.55-6.25-8.67-1.06.32-1.24-1.09-.18-1.21,6.54-.73,4.42-6.03,6.45-9.25.5,2.49.49,4.76,1.57,6.79,1.15,2.15,3.43,1.89,5.73,3.11-2.91.82-5.7.85-6.26,3.79Z"/>
      <path class="st14" d="M119.83,73.45c-1.05-1.61-1.58-2.5-2.83-3.37,1.43-1.01,1.93-1.96,2.53-3.67,1.04,1.51,1.64,2.77,3.18,3.73-1.61.79-2.03,1.34-2.88,3.31Z"/>
    </g>
    <g>
      <path class="st4" d="M479.53,259.78c-1.02,2.99-.58,5.61-1.19,5.94-.2.11-.61.03-.62-.35-.18-5.03-1.41-9.79-6.54-9.55-.45.02-.68-.21-.68-.55.02-.85,3.67-.29,5.46-2.77,2.64-3.68.85-7.93,2.61-7.44.23,2.32.42,5.04,1.62,7.06,1.74,2.93,5.66,2.27,5.7,3.15.05.95-4.73-.24-6.36,4.51Z"/>
      <path class="st2" d="M482.96,255.35c-2.88.46-4,2.44-4.69,5.33-.79-2.63-1.76-4.76-4.67-5.53,2.66-.94,3.93-2.62,4.61-5.31,1.01,2.98,1.5,4.51,4.75,5.51Z"/>
    </g>
    <g>
      <path class="st20" d="M25.86,136.5c-2.54,3.66-1.84,8.54-2.54,9.65-1.64,2.6-.63-4.22-3.09-8.76-2.37-4.4-7.94-2.89-7.3-4.29.59-1.27,5.15-.13,7.33-4.34,1.63-3.14,1.25-6.41,2.23-10.22,1.84,2.38,1.07,4.94,1.61,7.29,1.79,7.77,8.37,6.22,8.79,6.81,1.47,2.05-4.67.46-7.04,3.86Z"/>
      <path class="st22" d="M22.84,139.48c-.9-3.33-2.47-5.05-5.21-6.4,3.08-1.3,3.96-3.51,5.23-6.54.64,3.41,2.16,5.49,5.67,6.76-3.49.93-4.76,2.8-5.69,6.18Z"/>
    </g>
    <g>
      <path class="st7" d="M473.14,51.15c-1.56,2.47-1.52,5.37-1.78,7.92-.04.22-.92.43-1.29.16-.2-2.89-.55-6.16-2.24-8.74-1.51-2.31-4.47-1.98-7.28-2.66,2.29-1.97,5.36-.97,7.04-3.03,3-3.66,1.68-9.07,2.78-9.7,1.68-.97.22,4.61,2.9,8.87,2.04,3.24,6.39,2.43,7.06,3.23,1.18,1.4-4.95.41-7.19,3.96Z"/>
      <path class="st1" d="M470.78,52.99c-1.04-2.91-1.88-4.57-4.89-5.48,2.47-1.07,3.77-2.7,4.9-5.5.75,2.65,1.94,4.42,4.47,5.53-2.64,1.22-3.71,2.6-4.48,5.44Z"/>
    </g>
    <g>
      <path class="st20" d="M72.3,293.9c-2.41,2.93-2.03,6.52-2.84,10.29-2.09-1.56-1.3-4.04-1.75-5.98-1.9-8.21-8.96-6.21-9.24-7.23-.55-1.95,5.46-.1,7.92-4.5,1.71-3.05,1.34-6.25,2.16-9.97,2.1,2.06,1.28,4.44,1.74,6.57,1.63,7.43,7.77,6.37,9.33,6.96.31.12.31,1.22-.3,1.3-2.39.31-5.32.51-7.02,2.58Z"/>
      <path class="st19" d="M69.08,296.49c-1.11-3-2.21-4.38-5.2-5.79,3.42-1.32,4.09-3.4,5.21-6.38.81,3.33,1.8,5.25,5.27,6.41-3.12,1.38-4.32,2.66-5.28,5.76Z"/>
    </g>
  </g>
</svg>