<?xml version="1.0" encoding="UTF-8"?>
<svg id="Capa_1" xmlns="http://www.w3.org/2000/svg" version="1.1" viewBox="0 0 841.89 595.28">
  <!-- Generator: Adobe Illustrator 30.3.0, SVG Export Plug-In . SVG Version: 2.1.3 Build 182)  -->
  <defs>
    <style>
      .st0 {
        fill-rule: evenodd;
      }

      .st0, .st1 {
        fill: #de5499;
      }
    </style>
  </defs>
  <g>
    <path class="st1" d="M211.81,385.33l-.23-12.87c0-12.79.75-25.58,2.26-38.37,2.86-29.19,7.67-57.85,14.45-85.99,4.06-15.65,7.75-31.45,11.06-47.39.6-2.27.91-4.14.91-5.64,0-2.71-2.04-5.27-6.1-7.67-.61-.31-1.24-.68-1.92-1.13-.68-.45-1.39-.68-2.15-.68-1.2,0-2.18.6-2.93,1.81-8.28,13.53-21.59,37.69-39.95,72.45-11.14,21.52-18.43,32.8-21.89,33.85-5.42-13.54-8.13-34.76-8.13-63.64-.15-5.56-.6-11.06-1.35-16.48-.76-4.52-3.09-7.98-7-10.38-3.46-2.56-6.02-3.84-7.67-3.84-1.8,0-3.68,1.88-5.64,5.64-2.41,4.36-4.28,8.88-5.64,13.54-12.79,39.12-23.41,79-31.83,119.63-3.01,14.6-4.52,28.21-4.52,40.85,0,7.97,3.39,13.77,10.16,17.37,1.51.91,2.86,1.36,4.06,1.36,3.01,0,4.52-2.63,4.52-7.9,0-26.79,4.59-60.12,13.77-99.99,8.13-35.52,12.64-53.27,13.54-53.27.75,0,1.28,2.64,1.58,7.91,4.36,44.83,14,67.25,28.89,67.25,4.97,0,10.46-6.24,16.48-18.73,3.01-6.17,6.7-14.36,11.06-24.59,8.73-19.41,13.47-29.12,14.22-29.12.15,0,.23.16.23.45,0,.45-.23,1.44-.68,2.93-4.96,17.61-8.95,36.33-11.97,56.2-3,19.87-4.51,37.54-4.51,53.04,0,13.39.98,27.16,2.93,41.31.75,6.92,3.99,11.97,9.71,15.13.75.91,1.88,1.36,3.38,1.36.45,0,.91-.16,1.36-.45,1.2-1.06,1.8-2.41,1.8-4.07l-.23-1.8c-1.35-6.18-2.03-12.19-2.03-18.05"/>
    <path class="st1" d="M708.62,302.05c-1.06-1.81-2.41-2.72-4.07-2.72-2.73,0-14.35,7.18-34.88,21.51-.76.61-1.43.91-2.04.91-.91,0-1.74-.44-2.5-1.35-1.51-2.41-3.08-4.69-4.75-6.8-2.88-3.32-4.3-5.97-4.3-7.93.75-5.44,3.16-9.51,7.25-12.22,4.08-2.73,8-4.08,11.77-4.08,1.37,0,2.79.15,4.31.45.74.31,1.43.44,2.03.44,1.51,0,2.27-1.2,2.27-3.62,0-1.65-.37-3.16-1.13-4.52-3.48-7.1-9.06-10.65-16.76-10.65-6.19,0-12.6,3.17-19.25,9.51-5.13,4.98-7.7,10.34-7.7,16.07,0,1.77.31,3.63.9,5.6-1.04.35-2.04,1.11-3,2.31-2.37,3.05-4.66,5.75-6.85,8.13-17.78,23.7-31.65,35.54-41.63,35.54-3.22,0-5.58-1.36-7.11-4.06-1.18-2.03-1.77-4.31-1.77-6.85,0-4.57.59-7.28,1.77-8.13l1.77-.51c15.91-4.22,26.32-14.21,31.22-29.94.69-2.21,1.02-4.32,1.02-6.35,0-4.9-2.03-9.14-6.1-12.69-2.54-2.03-5.24-3.04-8.12-3.04-4.41,0-9.23,2.45-14.47,7.37-6.83,6.39-12.26,13.37-16.35,20.96-4.3,3.73-12.88,11.8-25.79,24.22-4.74,4.57-10.24,8.05-16.5,10.41l-3.81.26c-2.71,0-5.08-.77-7.11-2.28-2.89-2.21-4.32-5.07-4.32-8.63,0-3.89,2.37-7.37,7.11-10.41,11-6.77,23.94-21.84,38.84-45.19,1.35-1.86,2.02-3.47,2.02-4.83-.33-1.35-2.37-3.55-6.09-6.6l-1.01-.5c-1.36-.85-2.54-1.27-3.56-1.27-1.52,0-2.95.76-4.31,2.28l-7.61,9.14c-9.48,11.84-19.8,22.67-30.98,32.48-.34-.67-.5-1.34-.5-2.02v-1.53c11.17-34.87,24.87-68.54,41.12-101.03,1.36-2.54,2.03-4.57,2.03-6.1-.34-1.69-2.63-3.98-6.85-6.85-1.52-.85-2.96-1.27-4.31-1.27-5.59.86-15.57,18.62-29.96,53.31-10.96,25.6-19.69,50.06-26.25,73.4-16.34,23.18-28.15,36.19-35.44,39.05.16-13.54,5.08-30.37,14.72-50.52,1.18-2.04,1.77-3.89,1.77-5.59,0-2.53-1.95-5.32-5.84-8.37-1.69-1.35-3.22-2.03-4.57-2.03-1.53,0-3.56,1.53-6.09,4.57-2.54,3.04-5.67,5.83-9.4,8.37l-7.36-6.84c-5.08-4.07-9.99-6.1-14.73-6.1-5.76,0-11.34,3.13-16.75,9.39,0,.34-.09.51-.26.51-2.48,2.93-4.72,6.01-6.75,9.23-.36.3-.73.65-1.12,1.05-1.52,1.62-2.37,2.54-2.53,2.79-.18.26-.43.55-.77.9-9.64,11-20.14,21.23-31.48,30.71-4.74,3.89-8.97,5.84-12.69,5.84-1.19,0-1.78-1.01-1.78-3.04,0-17.94,6.42-34.02,19.29-48.23,2.2-2.2,3.89-3.3,5.07-3.3.85,0,1.73.42,2.67,1.27.93.85,1.9,1.26,2.92,1.26.68,0,1.44-.33,2.29-1.01,1.35-1.18,2.03-2.45,2.03-3.81v-1.27c-2.2-9.47-7.28-14.21-15.23-14.21-2.88,0-5.84.94-8.88,2.79-11.22,7.09-19.18,16.42-23.93,27.97-.78.88-1.52,2.12-2.22,3.76-18.11,26.24-31.05,40.87-38.84,43.92.16-13.54,5.08-30.37,14.72-50.52,1.18-2.04,1.78-3.89,1.78-5.59,0-2.53-1.95-5.32-5.84-8.37-1.69-1.35-3.22-2.03-4.57-2.03-1.52,0-3.56,1.53-6.09,4.57-2.54,3.04-5.67,5.83-9.39,8.37l-7.36-6.84c-5.08-4.07-9.99-6.1-14.72-6.1-5.76,0-11.34,3.13-16.76,9.39,0,.34-.08.51-.25.51-7.62,8.97-13.11,19.29-16.51,30.98-1.35,4.23-2.03,7.96-2.03,11.17,0,6.6,3.13,12.69,9.4,18.28,1.69,1.52,3.47,3.04,5.33,4.57,1.86,1.52,3.56,2.28,5.08,2.28,4.9,0,13.54-9.32,25.89-27.93.84-1.68,1.78-2.71,2.79-3.04v8.13c0,10.99,4.15,19.63,12.44,25.88,2.2,1.87,4.4,2.8,6.6,2.8,3.22,0,6.35-1.77,9.4-5.33,9.15-10.04,17.79-20.61,25.93-31.72,0,.42-.03.84-.03,1.26,0,9.14,3.56,17.93,10.66,26.4,2.7,3.38,5.84,5.07,9.39,5.07,7.49,0,20.04-9.3,37.63-27.86-.02.4-.06.82-.06,1.21,0,6.6,3.14,12.69,9.39,18.28,1.69,1.52,3.47,3.04,5.33,4.57,1.86,1.52,3.56,2.28,5.08,2.28,4.91,0,13.54-9.32,25.9-27.93.85-1.68,1.77-2.71,2.79-3.04v8.13c0,10.99,4.14,19.63,12.43,25.88,2.2,1.87,4.4,2.8,6.6,2.8,3.22,0,6.35-1.77,9.4-5.33,6.45-7.07,12.64-14.43,18.59-22.04-2.02,9.58-3.66,18.96-4.88,28.13-.33,1.36-.51,2.8-.51,4.31,0,4.23,1.95,7.53,5.84,9.91,1.69,1.01,3.3,1.53,4.83,1.53,2.2-.68,3.89-4.58,5.07-11.68,4.4-17.27,8.3-30.63,11.68-40.11,1.01.34,1.77.85,2.28,1.52.5.68.93,1.36,1.26,2.04.34.67.59,1.18.77,1.52,4.57,6.1,9.82,11,15.74,14.72,3.89,2.7,7.87,4.06,11.93,4.06,5.75,0,11.18-2.54,16.25-7.61l16.03-16.15c-.26,2.23-.46,4.47-.55,6.76,0,8.64,2.08,15.7,6.22,21.2,4.16,5.5,9.18,8.25,15.11,8.25,9.3,0,20.22-6.52,32.75-19.55,16.32-17.99,26.43-29.82,30.36-35.52,2.21,3.18,4.96,6.55,8.28,10.12,1.96,2.12,2.94,3.78,2.94,4.98-.15,1.21-2.41,3.4-6.8,6.57-14.79,10.73-24.45,21.67-28.99,32.84-1.06,3.02-1.58,5.81-1.58,8.38,0,4.83,2.87,9.97,8.6,15.4,2.26,1.5,4.91,2.26,7.92,2.26,1.36,0,2.8-.15,4.3-.44,10.73-2.88,19.33-8.77,25.82-17.67,6.48-8,9.73-16.68,9.73-26.04,0-4.69-.83-9.51-2.49-14.5-.45-1.51-.68-2.72-.68-3.61,0-1.06,2.04-2.88,6.12-5.45,8.76-6.33,17.66-12.37,26.73-18.11,2.42-1.51,3.63-3.02,3.63-4.53,0-.45-.16-1.13-.46-2.04M603.25,292.54c-1.52,11.34-7.19,18.79-17,22.34,4.06-8.46,9.73-15.9,17-22.34M243.05,338.74v-2.03c0-6.43,1.48-12.69,4.44-18.78,2.96-6.1,5.92-10.04,8.88-11.81,2.96-1.77,5.21-2.66,6.73-2.66,2.19,0,4.23,1.18,6.09,3.55-10.49,14.05-19.21,24.63-26.14,31.73M403.47,338.74v-2.03c0-6.43,1.48-12.69,4.44-18.78,2.96-6.1,5.92-10.04,8.88-11.81,2.96-1.77,5.21-2.66,6.73-2.66,2.2,0,4.23,1.18,6.09,3.55-10.49,14.05-19.21,24.63-26.15,31.73M643.63,373.61c-3.77,3.62-7.48,5.44-11.09,5.44-1.05,0-1.59-.45-1.59-1.36,0-2.27.99-5.06,2.94-8.38,6.34-10.41,14.27-19.4,23.78-26.95l.91-.92c.3,1.06.45,1.82.45,2.28,0,6.19-5.14,16.15-15.4,29.89"/>
  </g>
  <g id="QGniip">
    <g>
      <path class="st0" d="M722.15,282.99c-14.43-.02-26.06-11.7-26.04-26.19.01-14.39,11.78-26.08,26.22-26.05,14.41.03,26.07,11.78,26.02,26.23-.05,14.47-11.69,26.03-26.2,26.01ZM722.33,235.07c-11.94-.09-21.78,9.61-21.92,21.61-.13,11.93,9.64,21.94,21.5,22.03,12.17.1,22.07-9.59,22.17-21.7.09-12.02-9.67-21.85-21.75-21.94Z"/>
      <path class="st0" d="M712.93,243.02c4.99-.74,9.92-1.47,14.82.25,3.98,1.4,5.85,4.23,5.5,8.07-.2,2.18-1.24,3.85-3.01,5.09-.56.4-1.16.75-1.81,1.16,4.56,3.49,4.85,8.68,5.96,13.74h-4.06c-.33-1.48-.6-3-1.03-4.48-.41-1.39-.89-2.77-1.53-4.06-1.31-2.62-3.4-4.08-6.46-3.93-1.38.07-2.77.02-4.33.02v12.46h-4.04v-28.32ZM717.06,255.99c3.07-.28,6.02-.33,8.87-.87,2.29-.42,3.37-2.2,3.38-4.46.01-2.16-1.08-3.72-3.28-4.41-2.92-.94-5.89-.79-8.97-.45v10.19Z"/>
    </g>
  </g>
</svg>